<svg width="25" height="25" viewBox="0 0 25 25" fill="none" xmlns="http://www.w3.org/2000/svg">
<path fill-rule="evenodd" clip-rule="evenodd" d="M16.9594 12.7281C17.0321 12.8007 17.0899 12.8869 17.1292 12.9818C17.1686 13.0767 17.1889 13.1785 17.1889 13.2812C17.1889 13.384 17.1686 13.4858 17.1292 13.5807C17.0899 13.6756 17.0321 13.7618 16.9594 13.8344L12.2719 18.5219C12.1993 18.5946 12.1131 18.6523 12.0182 18.6917C11.9233 18.7311 11.8215 18.7514 11.7188 18.7514C11.616 18.7514 11.5142 18.7311 11.4193 18.6917C11.3244 18.6523 11.2382 18.5946 11.1656 18.5219L8.82189 16.1781C8.74925 16.1055 8.69163 16.0192 8.65232 15.9243C8.61301 15.8294 8.59277 15.7277 8.59277 15.625C8.59277 15.5223 8.61301 15.4205 8.65232 15.3256C8.69163 15.2307 8.74925 15.1445 8.82189 15.0719C8.96858 14.9252 9.16755 14.8428 9.37501 14.8428C9.47774 14.8428 9.57945 14.863 9.67436 14.9023C9.76927 14.9416 9.8555 14.9992 9.92814 15.0719L11.7188 16.8641L15.8531 12.7281C15.9257 12.6554 16.0119 12.5976 16.1068 12.5583C16.2017 12.5189 16.3035 12.4986 16.4063 12.4986C16.509 12.4986 16.6108 12.5189 16.7057 12.5583C16.8006 12.5976 16.8868 12.6554 16.9594 12.7281Z" fill="#857B7B"/>
<path d="M12.5 1.5625C13.536 1.5625 14.5296 1.97405 15.2621 2.70661C15.9947 3.43918 16.4062 4.43275 16.4062 5.46875V6.25H8.59375V5.46875C8.59375 4.43275 9.0053 3.43918 9.73786 2.70661C10.4704 1.97405 11.464 1.5625 12.5 1.5625ZM17.9688 6.25V5.46875C17.9688 4.01835 17.3926 2.62735 16.367 1.60176C15.3414 0.57617 13.9504 0 12.5 0C11.0496 0 9.6586 0.57617 8.63301 1.60176C7.60742 2.62735 7.03125 4.01835 7.03125 5.46875V6.25H1.5625V21.875C1.5625 22.7038 1.89174 23.4987 2.47779 24.0847C3.06384 24.6708 3.8587 25 4.6875 25H20.3125C21.1413 25 21.9362 24.6708 22.5222 24.0847C23.1083 23.4987 23.4375 22.7038 23.4375 21.875V6.25H17.9688ZM3.125 7.8125H21.875V21.875C21.875 22.2894 21.7104 22.6868 21.4174 22.9799C21.1243 23.2729 20.7269 23.4375 20.3125 23.4375H4.6875C4.2731 23.4375 3.87567 23.2729 3.58265 22.9799C3.28962 22.6868 3.125 22.2894 3.125 21.875V7.8125Z" fill="#857B7B"/>
</svg>
