<svg width="25" height="25" viewBox="0 0 25 25" fill="none" xmlns="http://www.w3.org/2000/svg">
<path fill-rule="evenodd" clip-rule="evenodd" d="M16.4062 5.46875C16.4062 4.43275 15.9947 3.43918 15.2621 2.70661C14.5296 1.97405 13.536 1.5625 12.5 1.5625C11.464 1.5625 10.4704 1.97405 9.73786 2.70661C9.0053 3.43918 8.59375 4.43275 8.59375 5.46875V6.25H16.4062V5.46875ZM17.9688 5.46875V6.25H23.4375V21.875C23.4375 22.7038 23.1083 23.4987 22.5222 24.0847C21.9362 24.6708 21.1413 25 20.3125 25H4.6875C3.8587 25 3.06384 24.6708 2.47779 24.0847C1.89174 23.4987 1.5625 22.7038 1.5625 21.875V6.25H7.03125V5.46875C7.03125 4.01835 7.60742 2.62735 8.63301 1.60176C9.6586 0.57617 11.0496 0 12.5 0C13.9504 0 15.3414 0.57617 16.367 1.60176C17.3926 2.62735 17.9688 4.01835 17.9688 5.46875ZM13.2812 12.5C13.2812 12.2928 13.1989 12.0941 13.0524 11.9476C12.9059 11.8011 12.7072 11.7188 12.5 11.7188C12.2928 11.7188 12.0941 11.8011 11.9476 11.9476C11.8011 12.0941 11.7188 12.2928 11.7188 12.5V14.8438H9.375C9.1678 14.8438 8.96909 14.9261 8.82257 15.0726C8.67606 15.2191 8.59375 15.4178 8.59375 15.625C8.59375 15.8322 8.67606 16.0309 8.82257 16.1774C8.96909 16.3239 9.1678 16.4062 9.375 16.4062H11.7188V18.75C11.7188 18.9572 11.8011 19.1559 11.9476 19.3024C12.0941 19.4489 12.2928 19.5312 12.5 19.5312C12.7072 19.5312 12.9059 19.4489 13.0524 19.3024C13.1989 19.1559 13.2812 18.9572 13.2812 18.75V16.4062H15.625C15.8322 16.4062 16.0309 16.3239 16.1774 16.1774C16.3239 16.0309 16.4062 15.8322 16.4062 15.625C16.4062 15.4178 16.3239 15.2191 16.1774 15.0726C16.0309 14.9261 15.8322 14.8438 15.625 14.8438H13.2812V12.5Z" fill="#857B7B"/>
</svg>
