<svg width="25" height="25" viewBox="0 0 25 25" fill="none" xmlns="http://www.w3.org/2000/svg">
<path d="M15.625 1.17188H0.78125V16.0156H9.375V24.2188H24.2188V9.375H15.625V1.17188ZM7.24145 4.6875L4.7897 11.6846H6.44531L6.84404 10.5469H9.375V14.4531H2.34375V2.73438H14.0625V9.375H10.8072L9.16504 4.6875H7.24145ZM9.01475 8.98438H7.3915L8.20312 6.66807L9.01475 8.98438ZM22.6562 10.9375V22.6562H10.9375V10.9375H22.6562Z" fill="#857B7B"/>
<path d="M15.4996 17.9922C15.6491 18.2322 15.8136 18.4625 15.9922 18.6816C15.4258 18.9871 14.7826 19.1401 14.0625 19.1406V20.7031C15.2413 20.7031 16.2944 20.3902 17.1875 19.784C18.0806 20.3902 19.1337 20.7031 20.3125 20.7031V19.1406C19.5939 19.1406 18.9507 18.9875 18.3828 18.6813C18.5614 18.4623 18.726 18.2321 18.8754 17.9922C19.3257 17.2601 19.6569 16.461 19.8565 15.625H20.7031V14.0625H17.9688V12.8906H16.4062V14.0625H13.6719V15.625H14.5185C14.7181 16.461 15.0493 17.2601 15.4996 17.9922ZM18.2388 15.625C18.0771 16.1658 17.8457 16.6831 17.5503 17.1641C17.4399 17.3414 17.3188 17.5118 17.1875 17.6742C17.0658 17.5237 16.9528 17.3664 16.8491 17.203C16.5417 16.7113 16.3019 16.1806 16.136 15.625H18.2388Z" fill="#857B7B"/>
</svg>
