<svg width="25" height="25" viewBox="0 0 25 25" fill="none" xmlns="http://www.w3.org/2000/svg">
<path fill-rule="evenodd" clip-rule="evenodd" d="M17.7359 1.7046C18.996 1.96142 20.1622 2.5568 21.1093 3.42675C22.0563 4.29671 22.7483 5.40833 23.1109 6.6421C23.4469 7.77335 23.4969 8.97023 23.2563 10.1265C22.9084 11.7106 22.0332 13.1297 20.7737 14.1516C19.5143 15.1735 17.9452 15.7375 16.3234 15.7515C15.6391 15.7515 14.9578 15.653 14.3031 15.4546L13.0531 16.9202L12.4609 17.1937H10.9375V19.5374L10.1563 20.3187H7.8125V22.6624L7.03125 23.4437H2.34375L1.5625 22.6624V19.0577L1.79063 18.5062L9.5625 10.7343C9.34194 10.0239 9.23644 9.28273 9.25 8.53898C9.26424 7.49841 9.50786 6.47379 9.96349 5.53817C10.4191 4.60255 11.0755 3.77896 11.886 3.12612C12.6964 2.47328 13.6408 2.00725 14.652 1.76127C15.6632 1.51529 16.7162 1.49541 17.7359 1.70304V1.7046ZM19.7953 12.9546C20.7769 12.1598 21.4594 11.0552 21.7313 9.82179L21.7375 9.8296C21.9311 8.92773 21.8963 7.99178 21.6362 7.1068C21.3761 6.22181 20.899 5.41584 20.2482 4.76212C19.5974 4.1084 18.7936 3.62766 17.9098 3.36357C17.026 3.09947 16.0902 3.06041 15.1875 3.24992C13.97 3.52015 12.8779 4.18994 12.085 5.15266C11.2922 6.11538 10.8443 7.31567 10.8125 8.56242C10.7969 9.27492 10.9219 9.98117 11.1859 10.6405L11.0141 11.489L3.125 19.3812V21.8812H6.25V19.5374L7.03125 18.7562H9.375V16.4124L10.1563 15.6312H12.1016L13.4703 14.0437L14.3469 13.8249C14.9787 14.0718 15.6513 14.198 16.3297 14.1968C17.5922 14.1871 18.8141 13.7492 19.7953 12.9546ZM18.4859 8.68585C18.6091 8.51562 18.6967 8.32228 18.7435 8.11741C18.7902 7.91254 18.7952 7.70035 18.758 7.49352C18.7209 7.2867 18.6424 7.08949 18.5272 6.9137C18.4121 6.73792 18.2627 6.58716 18.0879 6.47045C17.9132 6.35374 17.7167 6.27348 17.5102 6.23447C17.3037 6.19546 17.0915 6.1985 16.8862 6.2434C16.6809 6.28831 16.4868 6.37417 16.3155 6.49583C16.1442 6.61749 15.9991 6.77247 15.8891 6.95148C15.6774 7.29583 15.6073 7.70884 15.6937 8.10373C15.7801 8.49861 16.0162 8.84466 16.3523 9.06916C16.6885 9.29367 17.0986 9.37916 17.4964 9.30769C17.8943 9.23621 18.249 9.01333 18.4859 8.68585Z" fill="#857B7B"/>
</svg>
