<svg width="57" height="57" viewBox="0 0 57 57" fill="none" xmlns="http://www.w3.org/2000/svg">
<circle cx="28.5" cy="28.5" r="28.5" fill="#EFE6E6"/>
<path d="M12.3333 47C12.3333 47 9 47 9 43.6667C9 40.3333 12.3333 30.3333 29 30.3333C45.6667 30.3333 49 40.3333 49 43.6667C49 47 45.6667 47 45.6667 47H12.3333ZM29 27C31.6522 27 34.1957 25.9464 36.0711 24.0711C37.9464 22.1957 39 19.6522 39 17C39 14.3478 37.9464 11.8043 36.0711 9.92893C34.1957 8.05357 31.6522 7 29 7C26.3478 7 23.8043 8.05357 21.9289 9.92893C20.0536 11.8043 19 14.3478 19 17C19 19.6522 20.0536 22.1957 21.9289 24.0711C23.8043 25.9464 26.3478 27 29 27Z" fill="#857B7B"/>
</svg>
