<svg width="28" height="28" viewBox="0 0 28 28" fill="none" xmlns="http://www.w3.org/2000/svg">
<path d="M25.375 6.125H2.625C2.16103 6.12552 1.71621 6.31006 1.38814 6.63814C1.06006 6.96621 0.875521 7.41103 0.875 7.875V20.125C0.875521 20.589 1.06006 21.0338 1.38814 21.3619C1.71621 21.6899 2.16103 21.8745 2.625 21.875H25.375C25.839 21.8745 26.2838 21.6899 26.6119 21.3619C26.9399 21.0338 27.1245 20.589 27.125 20.125V7.875C27.1245 7.41103 26.9399 6.96621 26.6119 6.63814C26.2838 6.31006 25.839 6.12552 25.375 6.125ZM8.19875 20.125L2.625 15.3475V12.6525L8.19875 7.875H19.8012L25.3754 12.6528L25.3757 15.347L19.8012 20.125H8.19875ZM18.375 14C18.375 14.8653 18.1184 15.7112 17.6377 16.4306C17.1569 17.1501 16.4737 17.7108 15.6742 18.042C14.8748 18.3731 13.9951 18.4597 13.1465 18.2909C12.2978 18.1221 11.5183 17.7054 10.9064 17.0936C10.2946 16.4817 9.87787 15.7022 9.70906 14.8535C9.54025 14.0049 9.62689 13.1252 9.95803 12.3258C10.2892 11.5263 10.8499 10.8431 11.5694 10.3623C12.2888 9.88159 13.1347 9.625 14 9.625C15.1599 9.62633 16.2719 10.0877 17.0921 10.9079C17.9123 11.7281 18.3737 12.8401 18.375 14Z" fill="black"/>
</svg>
