<svg width="30" height="30" viewBox="0 0 30 30" fill="none" xmlns="http://www.w3.org/2000/svg">
<path d="M23.75 5.625H6.25C5.25544 5.625 4.30161 6.02009 3.59835 6.72335C2.89509 7.42661 2.5 8.38044 2.5 9.375V20.625C2.5 21.6196 2.89509 22.5734 3.59835 23.2767C4.30161 23.9799 5.25544 24.375 6.25 24.375H23.75C24.7446 24.375 25.6984 23.9799 26.4017 23.2767C27.1049 22.5734 27.5 21.6196 27.5 20.625V9.375C27.5 8.38044 27.1049 7.42661 26.4017 6.72335C25.6984 6.02009 24.7446 5.625 23.75 5.625ZM25 20.625C25 20.9565 24.8683 21.2745 24.6339 21.5089C24.3995 21.7433 24.0815 21.875 23.75 21.875H6.25C5.91848 21.875 5.60054 21.7433 5.36612 21.5089C5.1317 21.2745 5 20.9565 5 20.625V9.375C5 9.04348 5.1317 8.72554 5.36612 8.49112C5.60054 8.2567 5.91848 8.125 6.25 8.125H23.75C24.0815 8.125 24.3995 8.2567 24.6339 8.49112C24.8683 8.72554 25 9.04348 25 9.375V20.625ZM20 13.125C19.3354 13.1297 18.684 13.3108 18.1125 13.65C17.5431 13.3122 16.8945 13.1311 16.2324 13.1252C15.5704 13.1192 14.9186 13.2887 14.3433 13.6163C13.768 13.9439 13.2896 14.418 12.9569 14.9903C12.6242 15.5627 12.4489 16.2129 12.4489 16.875C12.4489 17.5371 12.6242 18.1873 12.9569 18.7597C13.2896 19.332 13.768 19.8061 14.3433 20.1337C14.9186 20.4613 15.5704 20.6308 16.2324 20.6248C16.8945 20.6189 17.5431 20.4378 18.1125 20.1C18.6098 20.395 19.1685 20.5711 19.745 20.6144C20.3216 20.6577 20.9004 20.5671 21.4361 20.3497C21.9718 20.1323 22.4501 19.7939 22.8334 19.361C23.2167 18.9282 23.4947 18.4126 23.6458 17.8545C23.7968 17.2964 23.8167 16.7109 23.704 16.1438C23.5913 15.5767 23.3489 15.0434 22.996 14.5855C22.643 14.1275 22.1889 13.7574 21.6691 13.5041C21.1494 13.2507 20.5782 13.121 20 13.125ZM16.4625 18.125C16.3918 18.131 16.3207 18.131 16.25 18.125C15.9185 18.125 15.6005 17.9933 15.3661 17.7589C15.1317 17.5245 15 17.2065 15 16.875C15 16.5435 15.1317 16.2255 15.3661 15.9911C15.6005 15.7567 15.9185 15.625 16.25 15.625C16.3207 15.619 16.3918 15.619 16.4625 15.625C16.1796 16.4 16.1796 17.25 16.4625 18.025V18.125ZM20 18.125C19.7528 18.125 19.5111 18.0517 19.3055 17.9143C19.1 17.777 18.9398 17.5818 18.8452 17.3534C18.7505 17.1249 18.7258 16.8736 18.774 16.6311C18.8223 16.3887 18.9413 16.1659 19.1161 15.9911C19.2909 15.8163 19.5137 15.6972 19.7561 15.649C19.9986 15.6008 20.2499 15.6255 20.4784 15.7201C20.7068 15.8148 20.902 15.975 21.0393 16.1805C21.1767 16.3861 21.25 16.6278 21.25 16.875C21.25 17.2065 21.1183 17.5245 20.8839 17.7589C20.6495 17.9933 20.3315 18.125 20 18.125Z" fill="black"/>
</svg>
